<svg width="140" height="40" viewBox="0 0 140 40" fill="none" xmlns="http://www.w3.org/2000/svg">
<path d="M12.0117 17.503C12.1324 17.2621 12.2732 17.0012 12.3939 16.7603C12.8768 15.7768 13.1786 14.7129 13.1987 13.609C13.2188 12.4046 12.8567 11.3007 12.1726 10.2971C11.6495 9.55438 10.9856 8.99236 10.3217 8.41027C9.25539 7.46687 8.14884 6.56362 7.24349 5.47972C6.94171 5.11842 6.68016 4.71698 6.43874 4.29546C6.09672 3.69329 6.01624 3.03091 6.13695 2.34845C6.27779 1.48535 6.68016 0.742673 7.1429 0C7.1429 0.0602167 7.12278 0.100361 7.12278 0.160578C7.08254 0.843034 7.16302 1.50542 7.52516 2.08751C7.60564 2.20795 7.70623 2.34845 7.80682 2.44881C8.41039 3.07105 8.99384 3.71336 9.59741 4.3356C10.5229 5.29907 11.5087 6.22239 12.5549 7.06543C12.9774 7.42673 13.2792 7.86832 13.581 8.32998C14.1644 9.23323 14.4662 10.2569 14.5265 11.3207C14.5467 11.8025 14.4461 12.2842 14.3656 12.7659C14.1443 13.9101 13.6614 14.9739 13.0579 15.9574C12.7561 16.4592 12.3939 16.941 12.072 17.4227C12.072 17.4628 12.0519 17.4829 12.0117 17.503Z" fill="white"/>
<path d="M12.8325 36.1662C12.41 33.9583 11.4242 32.0313 10.036 30.285C9.35195 29.4019 8.56731 28.599 7.72232 27.8563C7.44065 27.5954 7.15899 27.3143 6.81697 27.1337C5.83114 26.5516 5.00627 25.7889 4.3021 24.9057C3.67842 24.1429 3.11509 23.32 2.53164 22.497C2.22986 22.0755 1.96831 21.6138 1.70676 21.1722C1.4251 20.6504 1.28427 20.0683 1.18367 19.4862C1.02272 18.6632 0.922127 17.8202 0.942246 16.9771C0.942246 16.8768 1.0026 16.7564 1.04284 16.6158C1.24403 16.8166 1.30439 17.0374 1.36474 17.2381C1.66653 18.1815 2.18962 18.9643 2.95414 19.5665C3.59794 20.0683 4.28198 20.5099 4.94591 20.9715C5.26781 21.1923 5.56959 21.4332 5.8915 21.5938C6.51518 21.9149 6.9578 22.3766 7.23946 22.9988C7.31994 23.1995 7.40042 23.4003 7.46077 23.6211C7.48089 23.5809 7.50101 23.5608 7.52113 23.5408C8.60755 21.8948 9.65373 20.2289 10.5188 18.4625C11.0621 17.3384 11.5449 16.1743 11.7662 14.9298C11.8869 14.2072 11.9071 13.4846 11.726 12.762C11.5047 11.9189 11.0218 11.2164 10.3981 10.6143C9.73421 9.95187 9.05017 9.32963 8.36612 8.70739C7.6016 8.00486 6.8572 7.28226 6.25364 6.41915C5.87138 5.85713 5.52936 5.27504 5.36841 4.61265C5.32817 4.45207 5.30805 4.2915 5.28793 4.13092C5.12698 4.35171 5.02638 4.57251 4.90567 4.7933C4.60389 5.41554 4.4027 6.05785 4.38258 6.74031C4.34234 7.62349 4.62401 8.4063 5.1471 9.10883C5.85126 10.0322 6.69625 10.835 7.48089 11.6781C8.26553 12.5211 9.05017 13.3641 9.8348 14.2273C10.2372 14.6688 10.5188 15.1907 10.6396 15.7728C10.6798 15.9334 10.6798 16.094 10.6798 16.2545C10.6798 16.3951 10.6194 16.5155 10.4585 16.5356C10.2372 16.5757 10.0159 16.4753 9.87504 16.2947C9.77445 16.1542 9.67385 16.0137 9.55314 15.8932C8.80874 15.1104 8.04422 14.2875 7.23946 13.4846C6.51518 12.7821 5.75066 12.1197 5.00627 11.4372C4.76484 11.2164 4.50329 10.9756 4.3021 10.7146C3.83937 10.1124 3.57782 9.38984 3.35651 8.64717C3.3364 8.66724 3.31628 8.66724 3.29616 8.68731C3.19556 8.84789 3.09497 9.00847 2.99437 9.16905C2.41093 10.1927 1.96831 11.2766 1.58605 12.4007C0.962365 14.2273 0.378917 16.0338 0.117371 17.9607C-0.00334258 18.9442 -0.0435804 19.9077 0.0570141 20.8712C0.217965 22.2361 0.720938 23.5006 1.4251 24.6648C2.31033 26.1301 3.41687 27.4348 4.64412 28.619C5.58971 29.5424 6.61578 30.4055 7.74244 31.0879C8.94957 31.8306 9.89516 32.8141 10.6798 33.9783C11.8065 35.6644 12.4704 37.5512 12.8325 39.5383C12.8526 39.6989 12.8929 39.8394 12.9331 40C12.9734 39.7993 12.9935 39.6186 13.0136 39.4179C13.0941 38.334 13.0337 37.2501 12.8325 36.1662ZM2.39081 13.4244C2.4914 13.043 2.63223 12.6817 2.75295 12.3204C2.75295 12.3003 2.77307 12.3003 2.79319 12.2802C2.83342 12.5211 2.87366 12.7821 2.93402 13.0028C3.09497 13.5047 3.41687 13.886 3.77901 14.2473C4.84531 15.2509 5.95185 16.2345 7.01816 17.2381C7.50101 17.6997 7.96375 18.1815 8.40636 18.6833C8.64779 18.9442 8.82886 19.2654 8.80874 19.6267C8.80874 19.8274 8.54719 20.2088 8.346 20.269C8.30577 20.2891 8.20517 20.2288 8.16493 20.1686C8.06434 20.0081 8.00398 19.8274 7.90339 19.6668C7.62172 19.1851 7.19923 18.884 6.71637 18.6231C5.5696 17.9808 4.50329 17.2381 3.53759 16.3348C3.2358 16.0538 2.9139 15.7527 2.67247 15.4316C2.27009 14.8294 2.20974 14.1269 2.39081 13.4244Z" fill="white"/>
<path d="M27.8623 33.348V6.0498H29.7535V31.4613H45.1243V33.348H27.8623Z" fill="white"/>
<path d="M55.9503 26.4289L52.7111 33.3538H50.5986L63.4747 5.71436L75.6467 33.3538H73.5744L70.4962 26.4289H55.9503ZM63.3943 10.3912L56.8355 24.5421H69.6714L63.3943 10.3912Z" fill="white"/>
<path d="M85.1973 26.4289L81.9582 33.3538H79.8457L92.7218 5.71436L104.894 33.3538H102.822L99.7433 26.4289H85.1973ZM92.6413 10.3912L86.0826 24.5421H98.9184L92.6413 10.3912Z" fill="white"/>
<path d="M137.186 33.3533V11.7756L125.054 29.0377L112.761 11.7355V33.3533H110.87V5.73389L125.054 25.7258L139.077 5.73389V33.3733H137.186V33.3533Z" fill="white"/>
</svg>
